HIERARCHY
ROOT Hips
{
    OFFSET 0.000000 0.000000 0.000000
    CHANNELS 6 Xposition Yposition Zposition Zrotation Xrotation Yrotation
    JOINT Spine
    {
        OFFSET -0.000000 14.517291 0.000000
        CHANNELS 3 Zrotation Xrotation Yrotation
        JOINT Spine1
        {
            OFFSET -0.000000 37.558300 0.000000
            CHANNELS 3 Zrotation Xrotation Yrotation
            JOINT Neck
            {
                OFFSET -0.000000 37.404057 3.400369
                CHANNELS 3 Zrotation Xrotation Yrotation
                JOINT Head
                {
                    OFFSET -0.000000 24.785618 -3.540803
                    CHANNELS 3 Zrotation Xrotation Yrotation
                    End Site
                    {
                        OFFSET -0.000000 35.408028 0.000000
                    }
                }
            }
            JOINT LeftShoulder
            {
                OFFSET 6.992933 33.973492 -0.192664
                CHANNELS 3 Zrotation Xrotation Yrotation
                JOINT LeftArm
                {
                    OFFSET 21.527611 0.000000 0.000000
                    CHANNELS 3 Zrotation Xrotation Yrotation
                    JOINT LeftForeArm
                    {
                        OFFSET 56.353916 0.000000 0.000000
                        CHANNELS 3 Zrotation Xrotation Yrotation
                        JOINT LeftHand
                        {
                            OFFSET 47.774071 0.000000 0.000000
                            CHANNELS 3 Zrotation Xrotation Yrotation
                            End Site
                            {
                                OFFSET 26.556021 0.000000 0.000000
                            }
                        }
                    }
                }
            }
            JOINT RightShoulder
            {
                OFFSET -7.065357 33.973492 -0.192664
                CHANNELS 3 Zrotation Xrotation Yrotation
                JOINT RightArm
                {
                    OFFSET -21.527611 0.000000 0.000000
                    CHANNELS 3 Zrotation Xrotation Yrotation
                    JOINT RightForeArm
                    {
                        OFFSET -56.353916 0.000000 0.000000
                        CHANNELS 3 Zrotation Xrotation Yrotation
                        JOINT RightHand
                        {
                            OFFSET -47.774071 0.000000 0.000000
                            CHANNELS 3 Zrotation Xrotation Yrotation
                            End Site
                            {
                                OFFSET -26.556021 0.000000 0.000000
                            }
                        }
                    }
                }
            }
        }
    }
    JOINT LeftUpLeg
    {
        OFFSET 17.704014 0.000000 0.000000
        CHANNELS 3 Zrotation Xrotation Yrotation
        JOINT LeftLeg
        {
            OFFSET -0.000000 -81.181816 0.000000
            CHANNELS 3 Zrotation Xrotation Yrotation
            JOINT LeftFoot
            {
                OFFSET -0.000000 -62.821102 0.000000
                CHANNELS 3 Zrotation Xrotation Yrotation
                JOINT LeftToeBase
                {
                    OFFSET -0.000000 -11.507608 26.556021
                    CHANNELS 3 Zrotation Xrotation Yrotation
                    End Site
                    {
                        OFFSET -0.000000 0.000000 7.081605
                    }
                }
            }
        }
    }
    JOINT RightUpLeg
    {
        OFFSET -17.704014 0.000000 0.000000
        CHANNELS 3 Zrotation Xrotation Yrotation
        JOINT RightLeg
        {
            OFFSET -0.000000 -81.181816 0.000000
            CHANNELS 3 Zrotation Xrotation Yrotation
            JOINT RightFoot
            {
                OFFSET -0.000000 -62.821102 0.000000
                CHANNELS 3 Zrotation Xrotation Yrotation
                JOINT RightToeBase
                {
                    OFFSET -0.000000 -11.507608 26.556021
                    CHANNELS 3 Zrotation Xrotation Yrotation
                    End Site
                    {
                        OFFSET -0.000000 0.000000 7.081605
                    }
                }
            }
        }
    }
}
MOTION
Frames:    8
Frame Time:    0.008333
-24.027790    161.966660    -38.634739    -0.522791    1.243190    35.639561    -0.526974    2.063912    -0.804517    -3.114807    -1.110171    -0.301869    0.461734    4.984850    -15.216427    11.970753    -5.397796    -13.668909    2.244020    8.584529    -15.488391    -28.097864    20.263931    -55.055687    -1.925910    -30.715509    -109.303551    -13.565099    -31.238026    -17.566669    -0.780669    10.488008    -3.451369    27.193592    15.295094    47.416225    -4.839529    8.035120    35.198780    -21.784184    2.206967    37.011265    19.567335    -4.066996    -9.951430    -11.253913    30.511847    -22.007040    -5.334232    -17.257330    45.526447    0.000000    0.000000    0.000000    -3.823804    -17.412439    -5.116914    8.948314    25.122671    -8.749791    -4.228949    -6.359588    -13.699281    0.000000    0.000000    0.000000    
-23.974907    161.791107    -38.955715    -0.470316    1.273370    35.693790    -0.574421    2.110424    -0.838219    -3.130270    -1.115661    -0.313710    0.526157    5.028172    -15.203017    11.870073    -5.465606    -13.673201    2.319705    8.591208    -15.605277    -28.036892    20.075268    -55.246998    -1.870437    -30.830385    -109.126640    -13.665299    -31.251396    -17.693024    -0.795570    10.497893    -3.419316    27.083925    15.278077    47.465229    -4.907154    7.937018    35.104145    -21.719048    2.151584    36.992958    19.864765    -3.815238    -10.294317    -11.452535    30.512657    -21.721209    -5.530141    -17.148327    45.491806    0.000000    0.000000    0.000000    -4.045401    -17.741127    -5.241002    9.026833    25.669800    -8.727166    -4.198389    -6.555955    -13.761811    0.000000    0.000000    0.000000    
-23.903725    161.602859    -39.309929    -0.436981    1.319690    35.750332    -0.582521    2.142282    -0.894714    -3.163208    -1.097473    -0.332496    0.513748    4.964985    -15.198922    11.830892    -5.447874    -13.676985    2.331364    8.598905    -15.619798    -27.980684    19.846786    -55.533077    -1.829934    -30.863764    -108.934593    -13.732276    -31.213196    -17.747507    -0.806686    10.473025    -3.392263    26.995104    15.211652    47.537525    -4.924464    7.899114    34.995590    -21.653473    2.148734    36.935658    20.127203    -3.682916    -10.107250    -11.339131    30.777893    -21.902161    -5.770809    -17.154617    45.363602    0.000000    0.000000    0.000000    -4.251829    -18.076651    -5.334828    9.143476    26.213364    -8.752879    -4.296960    -6.838978    -13.907852    0.000000    0.000000    0.000000    
-23.830576    161.413574    -39.657097    -0.409285    1.371919    35.802612    -0.634519    2.117934    -0.930028    -3.149825    -1.018915    -0.342203    0.484671    4.906621    -15.197693    11.839898    -5.423275    -13.673742    2.341148    8.493998    -15.711528    -27.897736    19.761457    -55.688057    -1.769215    -30.978556    -108.779114    -13.763192    -31.234776    -17.841352    -0.832329    10.417085    -3.363833    26.960850    15.094674    47.565254    -4.880569    7.924040    34.901333    -21.689386    2.153000    36.889606    20.393864    -3.505635    -10.204866    -11.364725    30.879326    -21.916000    -5.922014    -17.184378    45.327320    0.000000    0.000000    0.000000    -4.485734    -18.434469    -5.332101    9.300298    26.722511    -8.861171    -4.272457    -7.018389    -13.977816    0.000000    0.000000    0.000000    
-23.741302    161.224655    -40.040813    -0.397374    1.415666    35.878849    -0.630023    2.132738    -0.989731    -3.187292    -1.008402    -0.362131    0.518316    4.896296    -15.183613    11.783977    -5.441720    -13.671116    2.397810    8.462848    -15.750806    -27.796888    19.672836    -55.937614    -1.659472    -31.150236    -108.579735    -13.832376    -31.248665    -17.932480    -0.849762    10.360747    -3.314637    26.899595    15.048809    47.560383    -4.913181    7.900124    34.814529    -21.633265    2.148630    36.917160    20.659065    -3.368098    -10.329674    -11.444568    30.972950    -21.807444    -5.992984    -17.158443    45.275639    0.000000    0.000000    0.000000    -4.730472    -18.789394    -5.345614    9.480525    27.208441    -8.991174    -4.255354    -7.176589    -14.034806    0.000000    0.000000    0.000000    
-23.665007    161.033890    -40.395695    -0.408159    1.432795    35.945457    -0.649184    2.123079    -1.037205    -3.165035    -0.967995    -0.376754    0.555415    4.865265    -15.205153    11.693353    -5.430701    -13.715685    2.428482    8.458289    -15.825820    -27.742306    19.507845    -56.110226    -1.630820    -31.204380    -108.450661    -13.849154    -31.253792    -18.008511    -0.842975    10.303095    -3.295870    26.810900    15.010280    47.575920    -4.935987    7.890948    34.747646    -21.663822    2.105032    37.047184    20.970556    -3.190701    -10.439863    -11.488301    31.010860    -21.955608    -6.299024    -17.358995    45.403469    0.000000    0.000000    0.000000    -4.900707    -19.121363    -5.303094    9.622544    27.668585    -9.123839    -4.200854    -7.332507    -14.131891    0.000000    0.000000    0.000000    
-23.568159    160.842987    -40.798149    -0.413535    1.468641    36.023941    -0.658708    2.137465    -1.093746    -3.139605    -0.972583    -0.395618    0.503222    4.875497    -15.190996    11.739650    -5.434090    -13.686348    2.413467    8.436232    -15.868707    -27.655861    19.421852    -56.307007    -1.545203    -31.319374    -108.292183    -13.910821    -31.247684    -18.060762    -0.885006    10.308946    -3.287790    26.804989    14.831724    47.640465    -4.865356    7.979586    34.625565    -21.715153    2.125504    37.155785    21.236195    -3.078134    -10.596711    -11.632204    31.056938    -21.294424    -6.416466    -17.185814    44.866264    0.000000    0.000000    0.000000    -5.115144    -19.466091    -5.222510    9.811633    28.101231    -9.322798    -4.168647    -7.465601    -14.220333    0.000000    0.000000    0.000000    
-23.466270    160.666962    -41.190712    -0.439875    1.472663    36.095280    -0.633450    2.147329    -1.155591    -3.176831    -0.999099    -0.417160    0.584229    4.994712    -15.182482    11.720513    -5.551063    -13.677190    2.488932    8.466119    -15.910038    -27.567446    19.332260    -56.526299    -1.465906    -31.457180    -108.117325    -14.041673    -31.249952    -18.230505    -0.870696    10.234101    -3.146389    26.744461    14.874893    47.512592    -4.949240    7.832547    34.593395    -21.572535    2.079979    37.022736    21.517982    -2.912524    -10.702651    -11.657396    31.069918    -21.224113    -6.629786    -17.253740    44.826874    0.000000    0.000000    0.000000    -5.226478    -19.775566    -5.390696    9.708652    28.519775    -9.321681    -4.034286    -7.572976    -14.157310    0.000000    0.000000    0.000000    
